<svg width="609" height="64" viewBox="0 0 609 64" fill="none" xmlns="http://www.w3.org/2000/svg">
<path d="M605.686 0H3.31391C1.48369 0 0 0.335533 0 0.749434V63.2506C0 63.6645 1.48369 64 3.31391 64H605.686C607.516 64 609 63.6645 609 63.2506V0.749434C609 0.335533 607.516 0 605.686 0Z" fill="#698094"/>
<path d="M605 30H4C3.44772 30 3 30.4477 3 31V63C3 63.5523 3.44772 64 4 64H605C605.552 64 606 63.5523 606 63V31C606 30.4477 605.552 30 605 30Z" fill="#CFD5DD"/>
<path d="M70 7H195C214 7 200 30 220 30V40H45V30C65 30 51 7 70 7Z" fill="#CFD5DD"/>
<path d="M197.075 20.8336C197.075 20.6973 197.02 20.561 196.922 20.4629L195.32 18.8604L196.922 17.2579C197.02 17.1598 197.075 17.0235 197.075 16.8873C197.075 16.751 197.02 16.6147 196.922 16.5166L196.181 15.7753C196.083 15.6772 195.947 15.6227 195.81 15.6227C195.674 15.6227 195.538 15.6772 195.44 15.7753L193.837 17.3778L192.235 15.7753C192.137 15.6772 192 15.6227 191.864 15.6227C191.728 15.6227 191.592 15.6772 191.493 15.7753L190.752 16.5166C190.654 16.6147 190.6 16.751 190.6 16.8873C190.6 17.0235 190.654 17.1598 190.752 17.2579L192.355 18.8604L190.752 20.4629C190.654 20.561 190.6 20.6973 190.6 20.8336C190.6 20.9698 190.654 21.1061 190.752 21.2042L191.493 21.9455C191.592 22.0436 191.728 22.0981 191.864 22.0981C192 22.0981 192.137 22.0436 192.235 21.9455L193.837 20.343L195.44 21.9455C195.538 22.0436 195.674 22.0981 195.81 22.0981C195.947 22.0981 196.083 22.0436 196.181 21.9455L196.922 21.2042C197.02 21.1061 197.075 20.9698 197.075 20.8336Z" fill="#698094"/>
<path d="M227.032 18.2738C227.032 17.943 226.764 17.6746 226.433 17.6746H223.836V15.0779C223.836 14.7471 223.568 14.4787 223.237 14.4787H222.039C221.708 14.4787 221.44 14.7471 221.44 15.0779V17.6746H218.843C218.512 17.6746 218.244 17.943 218.244 18.2738V19.4723C218.244 19.8031 218.512 20.0715 218.843 20.0715H221.44V22.6682C221.44 22.999 221.708 23.2675 222.039 23.2675H223.237C223.568 23.2675 223.836 22.999 223.836 22.6682V20.0715H226.433C226.764 20.0715 227.032 19.8031 227.032 19.4723V18.2738Z" fill="#CFD5DD"/>
<path d="M318.243 36H22.5125C21.9603 36 21.5125 36.4477 21.5125 37V57C21.5125 57.5523 21.9603 58 22.5125 58H318.243C318.796 58 319.243 57.5523 319.243 57V37C319.243 36.4477 318.796 36 318.243 36Z" fill="white"/>
<path d="M35.0487 46.9514C35.0487 51.0623 33.4157 55.0048 30.5089 57.9116C27.6021 60.8184 23.6596 62.4514 19.5487 62.4514C17.5132 62.4514 15.4977 62.0506 13.6171 61.2716C11.7366 60.4927 10.0279 59.3509 8.58854 57.9116C7.14922 56.4723 6.00751 54.7636 5.22856 52.883C4.44961 51.0025 4.04868 48.9869 4.04868 46.9514C4.04867 44.916 4.44961 42.9004 5.22856 41.0198C6.00751 39.1393 7.14922 37.4306 8.58854 35.9913C10.0279 34.5519 11.7366 33.4102 13.6171 32.6313C15.4977 31.8523 17.5132 31.4515 19.5487 31.4515C21.5842 31.4515 23.5998 31.8523 25.4803 32.6313C27.3609 33.4102 29.0696 34.552 30.5089 35.9913C31.9482 37.4306 33.0899 39.1393 33.8689 41.0198C34.6478 42.9004 35.0487 44.916 35.0487 46.9514V46.9514Z" fill="#CFD5DD"/>
<path opacity="0.9" d="M447 36H326C325.448 36 325 36.4477 325 37V57C325 57.5523 325.448 58 326 58H447C447.552 58 448 57.5523 448 57V37C448 36.4477 447.552 36 447 36Z" fill="white"/>
<path d="M467.375 39.2537C467.172 39.2537 467.017 39.4294 466.938 39.5975L464.938 43.6287L460.5 44.285C460.279 44.3204 460 44.4258 460 44.6912C460 44.8505 460.113 44.9825 460.219 45.0975L463.438 48.2225L462.688 52.66C462.679 52.7219 462.656 52.7856 462.656 52.8475C462.656 53.0775 462.775 53.285 463.031 53.285C463.155 53.285 463.26 53.2219 463.375 53.16L467.375 51.0975L471.344 53.16C471.45 53.2219 471.564 53.285 471.688 53.285C471.944 53.285 472.063 53.0863 472.063 52.8475C472.063 52.7856 472.04 52.7219 472.031 52.66L471.281 48.2225L474.5 45.0975C474.615 44.9825 474.719 44.8505 474.719 44.6912C474.719 44.4258 474.431 44.3204 474.219 44.285L469.781 43.6287L467.781 39.5975C467.702 39.4294 467.579 39.2537 467.375 39.2537H467.375ZM467.375 42.785L468.562 45.2537L471.281 45.66L469.312 47.5662L469.781 50.285L467.375 49.0037L464.938 50.285L465.406 47.5662L463.438 45.66L466.156 45.2537L467.375 42.785ZM461.969 45.2225H462.031C462.027 45.2345 462.002 45.2405 462 45.2537L461.969 45.2225H461.969ZM472.688 45.2225H472.75L472.719 45.2537C472.717 45.2405 472.691 45.2345 472.688 45.2225H472.688ZM464.062 51.4725C464.081 51.4865 464.102 51.4954 464.125 51.5037L464.031 51.5662L464.062 51.4725ZM470.656 51.4725L470.687 51.5662L470.594 51.5037C470.616 51.4957 470.638 51.4861 470.656 51.4725Z" fill="#698094"/>
<path d="M592.86 50.3925C592.86 50.0994 592.618 49.8566 592.325 49.8566H580.536C580.243 49.8566 580 50.0994 580 50.3925V51.4641C580 51.7572 580.243 52 580.536 52H592.325C592.618 52 592.86 51.7572 592.86 51.4641V50.3925ZM592.86 46.1057C592.86 45.8126 592.618 45.5698 592.325 45.5698H580.536C580.243 45.5698 580 45.8126 580 46.1057V47.1774C580 47.4704 580.243 47.7132 580.536 47.7132H592.325C592.618 47.7132 592.86 47.4704 592.86 47.1774V46.1057ZM592.86 41.8189C592.86 41.5258 592.618 41.283 592.325 41.283H580.536C580.243 41.283 580 41.5258 580 41.8189V42.8906C580 43.1836 580.243 43.4264 580.536 43.4264H592.325C592.618 43.4264 592.86 43.1836 592.86 42.8906V41.8189Z" fill="#698094"/>
<path d="M485.752 52.3139V40.33Z" fill="#698094"/>
<path d="M485.752 52.3139V40.33" stroke="#697394" stroke-linecap="round"/>
<path d="M565.177 52.9394V40.9554Z" fill="#698094"/>
<path d="M565.177 52.9394V40.9554" stroke="#697394" stroke-linecap="round"/>
<path d="M437.104 45.6509C437.104 47.3595 435.714 48.7498 434.005 48.7498C432.296 48.7498 430.906 47.3595 430.906 45.6509C430.906 43.9424 432.296 42.552 434.005 42.552C435.714 42.552 437.104 43.9424 437.104 45.6509ZM440.646 51.406C440.646 51.1708 440.549 50.9426 440.39 50.7835L438.017 48.4109C438.577 47.6016 438.875 46.6331 438.875 45.6509C438.875 42.9601 436.696 40.7812 434.005 40.7812C431.314 40.7812 429.135 42.9601 429.135 45.6509C429.135 48.3417 431.314 50.5206 434.005 50.5206C434.987 50.5206 435.956 50.2232 436.765 49.6629L439.138 52.0286C439.297 52.1946 439.525 52.2914 439.76 52.2914C440.244 52.2914 440.646 51.8902 440.646 51.406Z" fill="#698094"/>
<path d="M30.5 47C30.5 49.9174 29.3411 52.7153 27.2782 54.7782C25.2153 56.8411 22.4174 58 19.5 58C18.0555 58 16.6251 57.7155 15.2905 57.1627C13.9559 56.6099 12.7433 55.7997 11.7218 54.7782C10.7004 53.7568 9.89014 52.5441 9.33734 51.2095C8.78453 49.8749 8.5 48.4446 8.5 47C8.5 45.5555 8.78453 44.1251 9.33734 42.7905C9.89014 41.4559 10.7004 40.2433 11.7218 39.2218C12.7433 38.2004 13.9559 37.3901 15.2905 36.8373C16.6251 36.2845 18.0555 36 19.5 36C20.9446 36 22.375 36.2845 23.7096 36.8373C25.0441 37.3901 26.2568 38.2004 27.2782 39.2218C28.2997 40.2433 29.1099 41.4559 29.6627 42.7905C30.2155 44.1251 30.5 45.5555 30.5 47V47Z" fill="#698094"/>
<path d="M25.7678 46.0289C25.7678 45.5035 25.4201 45.0399 24.8638 45.0399H19.4241L21.688 42.7759C21.8735 42.5905 21.9817 42.3355 21.9817 42.0728C21.9817 41.81 21.8735 41.555 21.688 41.3696L21.1085 40.7978C20.9231 40.6124 20.6758 40.5042 20.4131 40.5042C20.1504 40.5042 19.8954 40.6124 19.71 40.7978L14.6798 45.8203C14.5021 46.0057 14.3939 46.2607 14.3939 46.5234C14.3939 46.7861 14.5021 47.0411 14.6798 47.2188L19.71 52.2567C19.8954 52.4344 20.1504 52.5426 20.4131 52.5426C20.6758 52.5426 20.9308 52.4344 21.1085 52.2567L21.688 51.6695C21.8735 51.4917 21.9817 51.2368 21.9817 50.9741C21.9817 50.7114 21.8735 50.4564 21.688 50.2787L19.4241 48.007H24.8638C25.4201 48.007 25.7678 47.5433 25.7678 47.0179V46.0289Z" fill="#FAFBFC"/>
<path d="M554.143 47.0681L547.947 41.4337C547.585 41.1045 546.999 41.1045 546.637 41.4337L540.441 47.0681H542.036L547.226 42.5656L552.506 47.0681H554.143ZM547.271 43.5241L542.928 47.3836C542.928 47.4023 542.924 52.5102 542.924 52.5102C542.924 52.8379 543.143 53.1093 543.407 53.1093H546.305V48.8078H548.236V53.1093H551.134C551.398 53.1093 551.617 52.8379 551.617 52.5102L551.614 47.3836C551.615 47.3649 547.271 43.5241 547.271 43.5241H547.271Z" fill="#698094"/>
<path d="M529.87 47.1698C529.8 47.0181 529.646 46.9297 529.464 46.9297H526.761V41.8522C526.761 41.6247 526.565 41.4478 526.313 41.4478H522.831C522.579 41.4478 522.383 41.6247 522.383 41.8522V46.9297H519.607C519.425 46.9297 519.271 47.0307 519.201 47.1698C519.131 47.3214 519.159 47.4857 519.271 47.6121L524.242 52.4649C524.326 52.5407 524.452 52.5913 524.578 52.5913C524.704 52.5913 524.816 52.5407 524.9 52.4649L529.8 47.6121C529.912 47.4857 529.94 47.3214 529.87 47.1698" fill="#698094"/>
<path d="M295.166 44.6694C295.166 44.3604 294.91 44.1043 294.601 44.1043H286.69C286.381 44.1043 286.125 44.3604 286.125 44.6694C286.125 44.8195 286.187 44.9608 286.293 45.0667L290.248 49.4598C290.354 49.5658 290.496 49.6276 290.646 49.6276C290.796 49.6276 290.937 49.5658 291.043 49.4598L294.999 45.0667C295.105 44.9608 295.166 44.8195 295.166 44.6694" fill="#698094"/>
<path d="M312.513 43.5899C312.513 43.4296 312.414 43.2877 312.272 43.226C312.124 43.1643 311.951 43.1952 311.84 43.3123L311.039 44.1079C310.169 43.2877 308.991 42.8004 307.776 42.8004C305.167 42.8004 303.039 44.9282 303.039 47.537C303.039 50.1459 305.167 52.2737 307.776 52.2737C309.188 52.2737 310.52 51.6507 311.421 50.5652C311.483 50.485 311.483 50.3679 311.409 50.3L310.564 49.4489C310.52 49.4119 310.465 49.3935 310.41 49.3935C310.354 49.3995 310.299 49.4243 310.268 49.4675C309.663 50.2507 308.757 50.6948 307.776 50.6948C306.037 50.6948 304.618 49.2763 304.618 47.537C304.618 45.7978 306.037 44.3793 307.776 44.3793C308.584 44.3793 309.349 44.6877 309.928 45.2242L309.077 46.0753C308.96 46.1864 308.929 46.3591 308.991 46.5009C309.053 46.6489 309.194 46.7476 309.355 46.7476H312.118C312.334 46.7476 312.513 46.5687 312.513 46.3529V43.5899" fill="#698094"/>
<path d="M502.692 39.9725L500.255 42.41H498.755C497.651 42.41 496.786 43.3062 496.786 44.41V50.785C496.786 51.8888 497.651 52.785 498.755 52.785H506.63C507.733 52.785 508.63 51.8888 508.63 50.785V44.41C508.63 43.3062 507.733 42.41 506.63 42.41H505.13L502.692 39.9725ZM499.13 44.2225C499.655 44.2225 500.067 44.6343 500.067 45.16C500.067 45.6857 499.655 46.1287 499.13 46.1287C498.604 46.1287 498.161 45.6857 498.161 45.16C498.161 44.6343 498.604 44.2225 499.13 44.2225ZM500.848 44.535H506.88C506.964 44.535 507.036 44.6069 507.036 44.6912V45.66C507.036 45.7443 506.964 45.8162 506.88 45.8162H500.848C500.764 45.8162 500.692 45.7443 500.692 45.66V44.6912C500.692 44.6069 500.764 44.535 500.848 44.535ZM499.13 46.7537C499.655 46.7537 500.067 47.1968 500.067 47.7225C500.067 48.2482 499.655 48.66 499.13 48.66C498.604 48.66 498.161 48.2482 498.161 47.7225C498.161 47.1968 498.604 46.7537 499.13 46.7537ZM500.848 47.0662H506.88C506.964 47.0662 507.036 47.1381 507.036 47.2225V48.1912C507.036 48.2755 506.964 48.3475 506.88 48.3475H500.848C500.764 48.3475 500.692 48.2756 500.692 48.1912V47.2225C500.692 47.1382 500.764 47.0662 500.848 47.0662ZM499.13 49.285C499.655 49.285 500.067 49.728 500.067 50.2537C500.067 50.7794 499.655 51.1912 499.13 51.1912C498.604 51.1912 498.161 50.7794 498.161 50.2537C498.161 49.728 498.604 49.285 499.13 49.285ZM500.848 49.6287H506.88C506.964 49.6287 507.036 49.7006 507.036 49.785V50.7225C507.036 50.8068 506.964 50.8787 506.88 50.8787H500.848C500.764 50.8787 500.692 50.8068 500.692 50.7225V49.785C500.692 49.7007 500.764 49.6287 500.848 49.6287Z" fill="#698094"/>
<path d="M49.02 49.09C49.02 49.7233 48.79 50.2167 48.33 50.57C47.87 50.9233 47.25 51.1 46.47 51.1C46.07 51.1 45.7 51.07 45.36 51.01C45.02 50.95 44.7367 50.8667 44.51 50.76V49.9C44.75 50.0067 45.0467 50.1033 45.4 50.19C45.76 50.2767 46.13 50.32 46.51 50.32C47.0433 50.32 47.4433 50.2167 47.71 50.01C47.9833 49.8033 48.12 49.5233 48.12 49.17C48.12 48.9367 48.07 48.74 47.97 48.58C47.87 48.42 47.6967 48.2733 47.45 48.14C47.21 48 46.8733 47.8533 46.44 47.7C45.8333 47.48 45.3733 47.21 45.06 46.89C44.7533 46.57 44.6 46.1333 44.6 45.58C44.6 45.2 44.6967 44.8767 44.89 44.61C45.0833 44.3367 45.35 44.1267 45.69 43.98C46.0367 43.8333 46.4333 43.76 46.88 43.76C47.2733 43.76 47.6333 43.7967 47.96 43.87C48.2867 43.9433 48.5833 44.04 48.85 44.16L48.57 44.93C48.3233 44.8233 48.0533 44.7333 47.76 44.66C47.4733 44.5867 47.1733 44.55 46.86 44.55C46.4133 44.55 46.0767 44.6467 45.85 44.84C45.6233 45.0267 45.51 45.2767 45.51 45.59C45.51 45.83 45.56 46.03 45.66 46.19C45.76 46.35 45.9233 46.4933 46.15 46.62C46.3767 46.7467 46.6833 46.8833 47.07 47.03C47.49 47.1833 47.8433 47.35 48.13 47.53C48.4233 47.7033 48.6433 47.9133 48.79 48.16C48.9433 48.4067 49.02 48.7167 49.02 49.09ZM54.4483 51H50.4583V43.86H54.4483V44.65H51.3583V46.88H54.2683V47.66H51.3583V50.21H54.4483V51ZM62.2449 47.42C62.2449 48.16 62.1183 48.8067 61.8649 49.36C61.6183 49.9067 61.2516 50.3333 60.7649 50.64C60.2783 50.9467 59.6749 51.1 58.9549 51.1C58.2149 51.1 57.5983 50.9467 57.1049 50.64C56.6183 50.3333 56.2549 49.9033 56.0149 49.35C55.7749 48.7967 55.6549 48.15 55.6549 47.41C55.6549 46.6767 55.7749 46.0367 56.0149 45.49C56.2549 44.9433 56.6183 44.5167 57.1049 44.21C57.5983 43.9033 58.2183 43.75 58.9649 43.75C59.6783 43.75 60.2783 43.9033 60.7649 44.21C61.2516 44.51 61.6183 44.9367 61.8649 45.49C62.1183 46.0367 62.2449 46.68 62.2449 47.42ZM56.6049 47.42C56.6049 48.32 56.7949 49.03 57.1749 49.55C57.5549 50.0633 58.1483 50.32 58.9549 50.32C59.7683 50.32 60.3616 50.0633 60.7349 49.55C61.1083 49.03 61.2949 48.32 61.2949 47.42C61.2949 46.52 61.1083 45.8167 60.7349 45.31C60.3616 44.7967 59.7716 44.54 58.9649 44.54C58.1583 44.54 57.5616 44.7967 57.1749 45.31C56.7949 45.8167 56.6049 46.52 56.6049 47.42Z" fill="black"/>
</svg>
